<svg width="46" height="45" viewBox="0 0 46 45" fill="none" xmlns="http://www.w3.org/2000/svg">
<g filter="url(#filter0_d_7202_851)">
<rect x="4.90311" y="4" width="36.9031" height="37" rx="18.4516" fill="white" style="fill:white;fill-opacity:1;"/>
<path d="M32.1944 14.9959C31.6836 14.4849 31.0772 14.0796 30.4098 13.803C29.7423 13.5264 29.0269 13.3841 28.3044 13.3841C27.5819 13.3841 26.8665 13.5264 26.199 13.803C25.5316 14.0796 24.9252 14.4849 24.4144 14.9959L23.3544 16.0559L22.2944 14.9959C21.2627 13.9642 19.8634 13.3846 18.4044 13.3846C16.9454 13.3846 15.5461 13.9642 14.5144 14.9959C13.4827 16.0276 12.9031 17.4269 12.9031 18.8859C12.9031 20.345 13.4827 21.7442 14.5144 22.7759L15.5744 23.8359L23.3544 31.6159L31.1344 23.8359L32.1944 22.7759C32.7054 22.2652 33.1107 21.6587 33.3873 20.9913C33.6639 20.3238 33.8062 19.6084 33.8062 18.8859C33.8062 18.1634 33.6639 17.448 33.3873 16.7806C33.1107 16.1131 32.7054 15.5067 32.1944 14.9959Z" stroke="#CCCCCC" style="stroke:#CCCCCC;stroke:color(display-p3 0.8003 0.8003 0.8003);stroke-opacity:1;" stroke-width="2" stroke-linecap="round" stroke-linejoin="round"/>
</g>
<defs>
<filter id="filter0_d_7202_851" x="0.903107" y="0" width="44.9031" height="45" filterUnits="userSpaceOnUse" color-interpolation-filters="sRGB">
<feFlood flood-opacity="0" result="BackgroundImageFix"/>
<feColorMatrix in="SourceAlpha" type="matrix" values="0 0 0 0 0 0 0 0 0 0 0 0 0 0 0 0 0 0 127 0" result="hardAlpha"/>
<feOffset/>
<feGaussianBlur stdDeviation="2"/>
<feComposite in2="hardAlpha" operator="out"/>
<feColorMatrix type="matrix" values="0 0 0 0 0 0 0 0 0 0 0 0 0 0 0 0 0 0 0.12 0"/>
<feBlend mode="normal" in2="BackgroundImageFix" result="effect1_dropShadow_7202_851"/>
<feBlend mode="normal" in="SourceGraphic" in2="effect1_dropShadow_7202_851" result="shape"/>
</filter>
</defs>
</svg>
