<svg width="24" height="25" viewBox="0 0 24 25" fill="none" xmlns="http://www.w3.org/2000/svg">
<path d="M12 13.36C12.5523 13.36 13 12.9123 13 12.36C13 11.8077 12.5523 11.36 12 11.36C11.4477 11.36 11 11.8077 11 12.36C11 12.9123 11.4477 13.36 12 13.36Z" stroke="black" style="stroke:black;stroke-opacity:1;" stroke-width="2" stroke-linecap="round" stroke-linejoin="round"/>
<path d="M12 6.35999C12.5523 6.35999 13 5.91227 13 5.35999C13 4.8077 12.5523 4.35999 12 4.35999C11.4477 4.35999 11 4.8077 11 5.35999C11 5.91227 11.4477 6.35999 12 6.35999Z" stroke="black" style="stroke:black;stroke-opacity:1;" stroke-width="2" stroke-linecap="round" stroke-linejoin="round"/>
<path d="M12 20.36C12.5523 20.36 13 19.9123 13 19.36C13 18.8077 12.5523 18.36 12 18.36C11.4477 18.36 11 18.8077 11 19.36C11 19.9123 11.4477 20.36 12 20.36Z" stroke="black" style="stroke:black;stroke-opacity:1;" stroke-width="2" stroke-linecap="round" stroke-linejoin="round"/>
</svg>
