<svg width="24" height="25" viewBox="0 0 24 25" fill="none" xmlns="http://www.w3.org/2000/svg">
<path d="M22 17.28V20.28C22.0011 20.5585 21.9441 20.8341 21.8325 21.0893C21.7209 21.3445 21.5573 21.5735 21.3521 21.7618C21.1468 21.9501 20.9046 22.0934 20.6407 22.1827C20.3769 22.2719 20.0974 22.305 19.82 22.28C16.7428 21.9456 13.787 20.8941 11.19 19.21C8.77382 17.6746 6.72533 15.6261 5.18999 13.21C3.49997 10.6012 2.44824 7.63095 2.11999 4.53996C2.095 4.26343 2.12787 3.98472 2.21649 3.72158C2.30512 3.45845 2.44756 3.21665 2.63476 3.01158C2.82196 2.80651 3.0498 2.64267 3.30379 2.53048C3.55777 2.41829 3.83233 2.36022 4.10999 2.35996H7.10999C7.5953 2.35518 8.06579 2.52704 8.43376 2.84349C8.80173 3.15995 9.04207 3.59941 9.10999 4.07996C9.23662 5.04003 9.47144 5.98269 9.80999 6.88996C9.94454 7.24788 9.97366 7.63687 9.8939 8.01084C9.81415 8.38481 9.62886 8.72807 9.35999 8.99996L8.08999 10.27C9.51355 12.7735 11.5864 14.8464 14.09 16.27L15.36 15C15.6319 14.7311 15.9751 14.5458 16.3491 14.4661C16.7231 14.3863 17.1121 14.4154 17.47 14.55C18.3773 14.8885 19.3199 15.1233 20.28 15.25C20.7658 15.3185 21.2094 15.5632 21.5265 15.9375C21.8437 16.3117 22.0122 16.7895 22 17.28Z" stroke="black" style="stroke:black;stroke-opacity:1;" stroke-width="2" stroke-linecap="round" stroke-linejoin="round"/>
</svg>
