<?xml version="1.0" encoding="UTF-8"?>
<svg id="objects" xmlns="http://www.w3.org/2000/svg" viewBox="0 0 600 600">
  <defs>
    <style>
      .cls-1 {
        fill: #ccf2ed;
      }

      .cls-2 {
        fill: #87dbd4;
      }
    </style>
  </defs>
  <circle class="cls-1" cx="303.5" cy="429.77" r="45.23"/>
  <path class="cls-2" d="M499.64,390.99v16.27c0,8.63-7,15.63-15.63,15.63H122.99c-8.63,0-15.63-7-15.63-15.63v-16.27c0-6.28,3.77-11.97,9.56-14.4,10.51-4.44,19.18-11.81,25.23-20.92,6.05-9.11,9.46-19.98,9.46-31.38v-78.48c0-75.53,55.45-139.39,127.65-151.27-.22-1.29-.32-2.61-.32-3.95,0-13.58,11-24.58,24.58-24.58s24.58,11,24.58,24.58c0,1.33-.11,2.63-.31,3.89,32.23,5.17,61.06,20.48,83.15,42.56,27.49,27.49,44.49,65.47,44.49,107.41v79.83c0,22.82,13.67,43.43,34.69,52.3,2.9,1.22,5.28,3.24,6.95,5.76,1.66,2.51,2.61,5.51,2.61,8.64Z"/>
  <path class="cls-1" d="M269.27,116.57c-20.96,5.05-80.1,26.98-97.99,115.64-.4,2,1.12,3.88,3.16,3.88h1.02c1.19,0,2.28-.65,2.84-1.7,6.17-11.53,43.8-78.23,95.15-91.53,3.02-.78,5.05-3.62,4.82-6.74l-1.02-13.73c-.3-3.99-4.09-6.76-7.98-5.82Z"/>
</svg>